<svg xmlns="http://www.w3.org/2000/svg" width="58" height="43" fill="none" viewBox="0 0 58 43">
    <path fill="#D3D3D3"
          d="M57.697 24.704c0-.27-.1-.53-.278-.732l-9.747-11.005a1.103 1.103 0 0 0-.826-.372h-7.994c-.61 0-1.104-.494-1.104-1.103V9.074c0-.609-.494-1.103-1.103-1.103h-9.641a1.16 1.16 0 0 1-1.016-.628C23.668 2.979 19.074 0 13.798 0 6.19 0 0 6.19 0 13.797c0 5.046 2.723 9.466 6.775 11.872.351.209.58.58.58.99v9.125c0 .61.493 1.104 1.103 1.104h3.085c.592 0 1.068.47 1.19 1.05.608 2.887 3.175 5.062 6.241 5.062 3.067 0 5.634-2.175 6.242-5.063.122-.578.598-1.05 1.19-1.05h12.239c.591 0 1.068.471 1.19 1.05C40.443 40.825 43.01 43 46.076 43s5.633-2.175 6.241-5.063c.122-.578.599-1.05 1.19-1.05h3.086c.61 0 1.103-.493 1.103-1.103v-11.08ZM2.404 13.797c0-6.282 5.11-11.393 11.393-11.393s11.394 5.11 11.394 11.393-5.111 11.394-11.394 11.394c-6.282 0-11.393-5.111-11.393-11.394Zm16.57 26.8A3.98 3.98 0 0 1 15 36.62a3.98 3.98 0 0 1 3.975-3.975 3.98 3.98 0 0 1 3.976 3.975 3.98 3.98 0 0 1-3.976 3.975Zm16.37-6.113h-9.582c-.466 0-.874-.298-1.083-.715a6.385 6.385 0 0 0-5.704-3.527 6.385 6.385 0 0 0-5.705 3.527c-.209.417-.617.715-1.083.715h-1.325c-.61 0-1.104-.494-1.104-1.104v-4.896c0-.742.72-1.273 1.448-1.134.84.16 1.706.245 2.591.245 7.608 0 13.797-6.19 13.797-13.797 0-.69-.05-1.367-.149-2.03-.105-.713.42-1.393 1.141-1.393h5.655c.609 0 1.103.494 1.103 1.104v23.005Zm10.732 6.112a3.98 3.98 0 0 1-3.975-3.975 3.98 3.98 0 0 1 3.975-3.975 3.98 3.98 0 0 1 3.975 3.975 3.98 3.98 0 0 1-3.975 3.975Zm9.216-7.216c0 .61-.494 1.104-1.103 1.104h-1.325c-.467 0-.875-.298-1.084-.715a6.385 6.385 0 0 0-5.704-3.527 6.385 6.385 0 0 0-5.704 3.527c-.21.417-.617.715-1.084.715h-.436c-.61 0-1.104-.494-1.104-1.104V16.103c0-.61.494-1.104 1.104-1.104h6.912c.316 0 .616.136.826.372l8.425 9.513c.179.202.277.462.277.732v7.764Z"/>
    <path fill="#D3D3D3"
          d="M18.634 16.498a1.104 1.104 0 0 0-.398-1.509l-2.689-1.566A1.103 1.103 0 0 1 15 12.47V6.182c0-.61-.494-1.104-1.103-1.104h-.197c-.61 0-1.104.494-1.104 1.104v7.67c0 .392.209.755.548.953l3.883 2.262a1.103 1.103 0 0 0 1.508-.398l.1-.17Z"/>
</svg>