<svg width="32" height="32" viewBox="0 0 32 32" fill="none" xmlns="http://www.w3.org/2000/svg">
<rect width="32" height="32" rx="6.09524" fill="#675F83"/>
<path d="M10.48 18.4521V22.0671C10.482 22.2488 10.5555 22.4224 10.6847 22.5502C10.8139 22.678 10.9883 22.7497 11.17 22.7496H15.385V18.4521H10.48Z" fill="white" fill-opacity="0.5"/>
<path d="M16.615 22.7496H20.83C21.0117 22.7497 21.1861 22.678 21.3153 22.5502C21.4444 22.4224 21.518 22.2488 21.52 22.0671V18.4521H16.615V22.7496Z" fill="white" fill-opacity="0.5"/>
<path d="M22.075 12.3175H20.695C20.8364 12.0304 20.9107 11.715 20.9125 11.395C20.9105 10.8254 20.6829 10.2799 20.2794 9.8778C19.8759 9.47575 19.3296 9.25 18.76 9.25C18.165 9.27822 17.5901 9.47418 17.1017 9.81525C16.6133 10.1563 16.2314 10.6286 16 11.1775C15.7686 10.6286 15.3867 10.1563 14.8983 9.81525C14.4099 9.47418 13.835 9.27822 13.24 9.25C12.6704 9.25 12.1241 9.47575 11.7206 9.8778C11.3171 10.2799 11.0895 10.8254 11.0875 11.395C11.0893 11.715 11.1636 12.0304 11.305 12.3175H9.925C9.55 12.3175 9.25 12.76 9.25 13.3V16.2475C9.25 16.7875 9.55 17.23 9.925 17.23H15.385V12.3175H16.615V17.23H22.075C22.45 17.23 22.75 16.7875 22.75 16.2475V13.3C22.75 12.76 22.45 12.3175 22.075 12.3175ZM13.24 12.3175C13.1124 12.329 12.9837 12.3139 12.8623 12.2729C12.7409 12.232 12.6293 12.1662 12.5347 12.0798C12.4401 11.9934 12.3645 11.8882 12.3128 11.7709C12.2611 11.6536 12.2344 11.5269 12.2344 11.3987C12.2344 11.2706 12.2611 11.1439 12.3128 11.0266C12.3645 10.9093 12.4401 10.8041 12.5347 10.7177C12.6293 10.6313 12.7409 10.5655 12.8623 10.5246C12.9837 10.4836 13.1124 10.4685 13.24 10.48C14.29 10.48 14.8825 11.56 15.175 12.3175H13.24ZM18.76 12.3175H16.825C17.1175 11.5675 17.71 10.48 18.76 10.48C18.8876 10.4685 19.0163 10.4836 19.1377 10.5246C19.2591 10.5655 19.3707 10.6313 19.4653 10.7177C19.5599 10.8041 19.6355 10.9093 19.6872 11.0266C19.7389 11.1439 19.7656 11.2706 19.7656 11.3987C19.7656 11.5269 19.7389 11.6536 19.6872 11.7709C19.6355 11.8882 19.5599 11.9934 19.4653 12.0798C19.3707 12.1662 19.2591 12.232 19.1377 12.2729C19.0163 12.3139 18.8876 12.329 18.76 12.3175Z" fill="white" fill-opacity="0.5"/>
</svg>
