<svg xmlns="http://www.w3.org/2000/svg" width="56" height="44" fill="none" viewBox="0 0 56 44">
    <path fill="#D3D3D3"
          d="M55.755 1.267c0-.7-.568-1.267-1.267-1.267H41.816a1.267 1.267 0 1 0 0 2.534h10.621L47.37 12.672h-8.571L32.812.7 32.8.707A1.255 1.255 0 0 0 31.68 0H1.267C.567 0 0 .566 0 1.267c0 .204.06.39.146.56l-.012.007 6.202 12.404v27.578c0 .7.567 1.267 1.267 1.267h40.549c.7 0 1.267-.566 1.267-1.267V14.238l6.203-12.404-.012-.007c.085-.17.145-.356.145-.56ZM3.317 2.534h27.579l5.068 10.138H8.386L3.317 2.534Zm33.43 36.748c0 .7-.567 1.267-1.267 1.267H8.87V15.206h26.61c.7 0 1.268.566 1.268 1.267v22.809Zm10.138 1.267h-6.336c-.7 0-1.267-.566-1.267-1.267V16.473c0-.7.568-1.267 1.267-1.267h6.336v25.343Z"/>
</svg>