<?xml version="1.0" encoding="UTF-8"?><!DOCTYPE svg PUBLIC "-//W3C//DTD SVG 1.1//EN" "http://www.w3.org/Graphics/SVG/1.1/DTD/svg11.dtd"><svg xmlns="http://www.w3.org/2000/svg" xmlns:xlink="http://www.w3.org/1999/xlink"><defs>
<clipPath id="clip0_34_522">
<rect width="20" height="20" fill="white"/>
</clipPath>
</defs><symbol id="arrow-next" viewBox="0 0 34 33">
<path d="M32.7408 16.7237C33.1313 16.3332 33.1313 15.7 32.7408 15.3095L26.3768 8.94553C25.9863 8.55501 25.3531 8.55501 24.9626 8.94553C24.5721 9.33606 24.5721 9.96922 24.9626 10.3597L30.6195 16.0166L24.9626 21.6735C24.5721 22.064 24.5721 22.6971 24.9626 23.0877C25.3531 23.4782 25.9863 23.4782 26.3768 23.0877L32.7408 16.7237ZM1.52588e-05 17.0166H32.0337V15.0166H1.52588e-05V17.0166Z"/>
</symbol><symbol id="arrow-up" viewBox="0 0 25 25">
<path d="M24.6512 1.00014C24.6512 0.44786 24.2035 0.000144428 23.6512 0.000142826L14.6512 0.000143627C14.0989 0.00014329 13.6512 0.447859 13.6512 1.00014C13.6512 1.55243 14.0989 2.00014 14.6512 2.00014L22.6512 2.00014L22.6512 10.0001C22.6512 10.5524 23.0989 11.0001 23.6512 11.0001C24.2035 11.0001 24.6512 10.5524 24.6512 10.0001L24.6512 1.00014ZM1.70711 24.3585L24.3583 1.70725L22.9441 0.293037L0.292893 22.9443L1.70711 24.3585Z">
</path></symbol><symbol id="email" viewBox="0 0 17 13">
<path d="M8.29459 8.12953L5.88395 6.1869L0.63759 12.267H15.9563L10.7094 6.12647L8.29459 8.12953ZM16.53 0.666992H0.0633446L8.29696 7.46475L16.53 0.666992ZM11.0711 5.82022L16.5714 12.2612V1.2481L11.0711 5.82022ZM0 1.2481V12.2612L5.50033 5.82022L0 1.2481Z"/>
</symbol><symbol id="inst" viewBox="0 0 20 20">
<path d="M13.2 10C13.2 10.6329 13.0123 11.2516 12.6607 11.7778C12.3091 12.3041 11.8093 12.7142 11.2246 12.9564C10.6399 13.1986 9.99645 13.262 9.37571 13.1385C8.75497 13.015 8.18479 12.7103 7.73726 12.2627C7.28973 11.8152 6.98496 11.245 6.86149 10.6243C6.73801 10.0036 6.80138 9.36014 7.04359 8.77541C7.28579 8.19069 7.69594 7.69092 8.22218 7.3393C8.74841 6.98768 9.3671 6.8 10 6.8C10.8484 6.80097 11.6618 7.13842 12.2617 7.73833C12.8616 8.33824 13.199 9.15161 13.2 10ZM20 5.6V14.4C19.9983 15.8847 19.4078 17.3081 18.3579 18.3579C17.3081 19.4078 15.8847 19.9983 14.4 20H5.6C4.1153 19.9983 2.6919 19.4078 1.64206 18.3579C0.59222 17.3081 0.00168148 15.8847 0 14.4V5.6C0.00168148 4.1153 0.59222 2.6919 1.64206 1.64206C2.6919 0.59222 4.1153 0.00168148 5.6 0H14.4C15.8847 0.00168148 17.3081 0.59222 18.3579 1.64206C19.4078 2.6919 19.9983 4.1153 20 5.6ZM14.8 10C14.8 9.05065 14.5185 8.12262 13.9911 7.33326C13.4636 6.54391 12.714 5.92868 11.8369 5.56538C10.9598 5.20208 9.99468 5.10702 9.06357 5.29223C8.13246 5.47744 7.27718 5.9346 6.60589 6.60589C5.9346 7.27718 5.47744 8.13246 5.29223 9.06357C5.10702 9.99468 5.20208 10.9598 5.56538 11.8369C5.92868 12.714 6.54391 13.4636 7.33326 13.9911C8.12262 14.5185 9.05065 14.8 10 14.8C11.2726 14.7986 12.4927 14.2924 13.3925 13.3925C14.2924 12.4927 14.7986 11.2726 14.8 10ZM16.4 4.8C16.4 4.56266 16.3296 4.33066 16.1978 4.13332C16.0659 3.93598 15.8785 3.78217 15.6592 3.69134C15.4399 3.60052 15.1987 3.57676 14.9659 3.62306C14.7331 3.66936 14.5193 3.78365 14.3515 3.95147C14.1837 4.11929 14.0694 4.33311 14.0231 4.56589C13.9768 4.79867 14.0005 5.03995 14.0913 5.25922C14.1822 5.47849 14.336 5.66591 14.5333 5.79776C14.7307 5.92962 14.9627 6 15.2 6C15.5183 6 15.8235 5.87357 16.0485 5.64853C16.2736 5.42348 16.4 5.11826 16.4 4.8Z"/>
</symbol><symbol id="phone" viewBox="0 0 16 16">
<path d="M15.893 12.7537L15.8135 12.5137C15.6253 11.9529 15.0084 11.3681 14.4417 11.2141L12.3443 10.6397C11.7755 10.4846 10.9641 10.6932 10.548 11.1103L9.78888 11.8712C7.03015 11.124 4.86688 8.95547 4.12243 6.19068L4.88156 5.42973C5.29772 5.01258 5.50576 4.20036 5.35102 3.63021L4.77908 1.52673C4.62434 0.957618 4.03986 0.339275 3.48154 0.152702L3.24211 0.0720092C2.68272 -0.114564 1.88495 0.0741221 1.46883 0.491236L0.333322 1.63049C0.130465 1.83276 0.000814775 2.4113 0.000814775 2.41341C-0.0389001 6.02715 1.37471 9.50881 3.92483 12.0651C6.46869 14.615 9.92904 16.0299 13.5237 15.9995C13.5425 15.9995 14.1364 15.8716 14.3392 15.6693L15.4747 14.5311C15.8909 14.114 16.0791 13.3144 15.893 12.7537Z"/>
</symbol><symbol id="search" viewBox="0 0 17 17"><g fill="none">
<path d="M16.5851 14.5819L12.9888 10.9857C13.7319 9.86577 14.1668 8.52488 14.1668 7.08341C14.1668 3.17762 10.9892 0 7.08341 0C3.17762 0 0 3.17762 0 7.08341C0 10.9892 3.17762 14.1668 7.08341 14.1668C8.52488 14.1668 9.86577 13.7319 10.9857 12.9888L14.5819 16.5851C15.1344 17.1383 16.0326 17.1383 16.5851 16.5851C17.1383 16.0319 17.1383 15.1351 16.5851 14.5819ZM2.12502 7.08341C2.12502 4.34921 4.34921 2.12502 7.08341 2.12502C9.8176 2.12502 12.0418 4.34921 12.0418 7.08341C12.0418 9.8176 9.8176 12.0418 7.08341 12.0418C4.34921 12.0418 2.12502 9.8176 2.12502 7.08341Z" fill="#9B9B9B" fill-opacity="0.7"/>
</g></symbol><symbol id="shopping-cart" viewBox="0 0 20 23">
<path d="M6 17.9192C4.9 17.9192 4 18.8959 4 20.0897C4 21.2834 4.9 22.2601 6 22.2601C7.1 22.2601 8 21.2834 8 20.0897C8 18.8959 7.1 17.9192 6 17.9192ZM0 0.555664V2.72611H2L5.6 10.9738L4.2 13.5783C4.1 13.9039 4 14.338 4 14.6635C4 15.8573 4.9 16.834 6 16.834H18V14.6635H6.4C6.3 14.6635 6.2 14.555 6.2 14.4465V14.3379L7.1 12.4931H14.5C15.3 12.4931 15.9 12.059 16.2 11.4078L19.8 4.35394C20 4.1369 20 4.02837 20 3.81133C20 3.1602 19.6 2.72611 19 2.72611H4.2L3.3 0.555664H0ZM16 17.9192C14.9 17.9192 14 18.8959 14 20.0897C14 21.2834 14.9 22.2601 16 22.2601C17.1 22.2601 18 21.2834 18 20.0897C18 18.8959 17.1 17.9192 16 17.9192Z"/>
</symbol><symbol id="tg" viewBox="0 0 20 18">
<path d="M18.3764 0.204579L0.657317 7.54852C-0.0557229 7.89049 -0.296898 8.5754 0.484944 8.94709L5.03069 10.4997L16.0216 3.19909C16.6217 2.74075 17.2361 2.86298 16.7074 3.36714L7.2677 12.5534L6.97117 16.441C7.24583 17.0413 7.74873 17.0441 8.0695 16.7457L10.6811 14.0897L15.154 17.6896C16.1928 18.3506 16.7581 17.924 16.9816 16.7125L19.9154 1.78166C20.22 0.290287 19.7006 -0.366807 18.3764 0.204579Z"/>
</symbol><symbol id="vk" viewBox="0 0 26 16">
<path d="M25.4039 1.08352C25.5855 0.458411 25.4039 0 24.5449 0H21.6995C20.9755 0 20.6446 0.396573 20.463 0.83213C20.463 0.83213 19.0162 4.48731 16.9662 6.85733C16.3045 7.54697 16.0021 7.76475 15.6414 7.76475C15.4611 7.76475 15.199 7.54697 15.199 6.92186V1.08352C15.199 0.33339 14.9901 0 14.3867 0H9.91554C9.46401 0 9.19153 0.346833 9.19153 0.677533C9.19153 1.38733 10.2166 1.55134 10.3217 3.55167V7.89111C10.3217 8.84154 10.1569 9.01496 9.79357 9.01496C8.82953 9.01496 6.48364 5.34633 5.09141 1.1467C4.82023 0.330701 4.54646 0.00134486 3.81986 0.00134486H0.975725C0.162188 0.00134486 0 0.397917 0 0.833474C0 1.61586 0.964047 5.48748 4.49067 10.608C6.84175 14.1045 10.1517 16 13.1671 16C14.9745 16 15.1977 15.5792 15.1977 14.8533V12.2104C15.1977 11.3688 15.3703 11.1995 15.9425 11.1995C16.3628 11.1995 17.0869 11.4199 18.7749 13.1044C20.703 15.102 21.0222 15.9987 22.1056 15.9987H24.9497C25.762 15.9987 26.1681 15.5779 25.9345 14.7471C25.6789 13.9203 24.7577 12.7172 23.5355 11.2936C22.8711 10.4816 21.8785 9.6078 21.5762 9.1709C21.1545 8.60763 21.2765 8.35893 21.5762 7.85885C21.5775 7.86019 25.0432 2.80289 25.4039 1.08352Z"/>
</symbol><symbol id="whatsapp" viewBox="0 0 20 20">
<g clip-path="url(#clip0_34_522)">
<path fill-rule="evenodd" clip-rule="evenodd" d="M7.20531 5.07953C7.01141 4.61516 6.86437 4.5975 6.57062 4.58562C6.47062 4.57984 6.35922 4.57406 6.23563 4.57406C5.85344 4.57406 5.45391 4.68578 5.21281 4.93266C4.91906 5.2325 4.19016 5.93203 4.19016 7.36641C4.19016 8.80094 5.23625 10.1883 5.37734 10.3825C5.52437 10.5763 7.41688 13.5628 10.3555 14.78C12.6534 15.7323 13.3353 15.6441 13.8583 15.5325C14.6223 15.368 15.5803 14.8033 15.8214 14.1216C16.0623 13.4395 16.0623 12.8575 15.9917 12.7341C15.9213 12.6106 15.7272 12.5403 15.4334 12.3931C15.1397 12.2461 13.7114 11.5406 13.4411 11.4466C13.1766 11.3467 12.9239 11.382 12.7242 11.6642C12.442 12.0581 12.1659 12.458 11.9425 12.6989C11.7662 12.887 11.4781 12.9106 11.2372 12.8106C10.9139 12.6756 10.0089 12.3578 8.89219 11.3644C8.02812 10.5944 7.44047 9.63625 7.27016 9.34812C7.09969 9.05422 7.2525 8.88359 7.38766 8.725C7.53469 8.54266 7.67562 8.41344 7.8225 8.24281C7.96953 8.07234 8.05172 7.98422 8.14578 7.78422C8.24578 7.59031 8.17516 7.39031 8.10469 7.24328C8.03406 7.09594 7.44641 5.66141 7.20531 5.07953ZM9.99703 0C4.48422 0 0 4.48547 0 9.99984C0 12.1867 0.705313 14.215 1.90422 15.8611L0.658125 19.5766L4.50187 18.3481C6.08281 19.3945 7.96937 20 10.003 20C15.5158 20 20 15.5142 20 10.0002C20 4.48578 15.5158 0.0003125 10.003 0.0003125H9.99719L9.99703 0Z"/>
</g>

</symbol></svg>