<svg width="16" height="16" viewBox="0 0 16 16"  xmlns="http://www.w3.org/2000/svg">
<path d="M15.893 12.7537L15.8135 12.5137C15.6253 11.9529 15.0084 11.3681 14.4417 11.2141L12.3443 10.6397C11.7755 10.4846 10.9641 10.6932 10.548 11.1103L9.78888 11.8712C7.03015 11.124 4.86688 8.95547 4.12243 6.19068L4.88156 5.42973C5.29772 5.01258 5.50576 4.20036 5.35102 3.63021L4.77908 1.52673C4.62434 0.957618 4.03986 0.339275 3.48154 0.152702L3.24211 0.0720092C2.68272 -0.114564 1.88495 0.0741221 1.46883 0.491236L0.333322 1.63049C0.130465 1.83276 0.000814775 2.4113 0.000814775 2.41341C-0.0389001 6.02715 1.37471 9.50881 3.92483 12.0651C6.46869 14.615 9.92904 16.0299 13.5237 15.9995C13.5425 15.9995 14.1364 15.8716 14.3392 15.6693L15.4747 14.5311C15.8909 14.114 16.0791 13.3144 15.893 12.7537Z" />
</svg>
