<svg width="17" height="17" viewBox="0 0 17 17" fill="none" xmlns="http://www.w3.org/2000/svg">
<path d="M16.5851 14.5819L12.9888 10.9857C13.7319 9.86577 14.1668 8.52488 14.1668 7.08341C14.1668 3.17762 10.9892 0 7.08341 0C3.17762 0 0 3.17762 0 7.08341C0 10.9892 3.17762 14.1668 7.08341 14.1668C8.52488 14.1668 9.86577 13.7319 10.9857 12.9888L14.5819 16.5851C15.1344 17.1383 16.0326 17.1383 16.5851 16.5851C17.1383 16.0319 17.1383 15.1351 16.5851 14.5819ZM2.12502 7.08341C2.12502 4.34921 4.34921 2.12502 7.08341 2.12502C9.8176 2.12502 12.0418 4.34921 12.0418 7.08341C12.0418 9.8176 9.8176 12.0418 7.08341 12.0418C4.34921 12.0418 2.12502 9.8176 2.12502 7.08341Z" fill="#9B9B9B" fill-opacity="0.7"/>
</svg>
