<svg width="20" height="23" viewBox="0 0 20 23"  xmlns="http://www.w3.org/2000/svg">
<path d="M6 17.9192C4.9 17.9192 4 18.8959 4 20.0897C4 21.2834 4.9 22.2601 6 22.2601C7.1 22.2601 8 21.2834 8 20.0897C8 18.8959 7.1 17.9192 6 17.9192ZM0 0.555664V2.72611H2L5.6 10.9738L4.2 13.5783C4.1 13.9039 4 14.338 4 14.6635C4 15.8573 4.9 16.834 6 16.834H18V14.6635H6.4C6.3 14.6635 6.2 14.555 6.2 14.4465V14.3379L7.1 12.4931H14.5C15.3 12.4931 15.9 12.059 16.2 11.4078L19.8 4.35394C20 4.1369 20 4.02837 20 3.81133C20 3.1602 19.6 2.72611 19 2.72611H4.2L3.3 0.555664H0ZM16 17.9192C14.9 17.9192 14 18.8959 14 20.0897C14 21.2834 14.9 22.2601 16 22.2601C17.1 22.2601 18 21.2834 18 20.0897C18 18.8959 17.1 17.9192 16 17.9192Z"/>
</svg>
