<svg width="20" height="20" viewBox="0 0 20 20"  xmlns="http://www.w3.org/2000/svg">
<g clip-path="url(#clip0_34_522)">
<path fill-rule="evenodd" clip-rule="evenodd" d="M7.20531 5.07953C7.01141 4.61516 6.86437 4.5975 6.57062 4.58562C6.47062 4.57984 6.35922 4.57406 6.23563 4.57406C5.85344 4.57406 5.45391 4.68578 5.21281 4.93266C4.91906 5.2325 4.19016 5.93203 4.19016 7.36641C4.19016 8.80094 5.23625 10.1883 5.37734 10.3825C5.52437 10.5763 7.41688 13.5628 10.3555 14.78C12.6534 15.7323 13.3353 15.6441 13.8583 15.5325C14.6223 15.368 15.5803 14.8033 15.8214 14.1216C16.0623 13.4395 16.0623 12.8575 15.9917 12.7341C15.9213 12.6106 15.7272 12.5403 15.4334 12.3931C15.1397 12.2461 13.7114 11.5406 13.4411 11.4466C13.1766 11.3467 12.9239 11.382 12.7242 11.6642C12.442 12.0581 12.1659 12.458 11.9425 12.6989C11.7662 12.887 11.4781 12.9106 11.2372 12.8106C10.9139 12.6756 10.0089 12.3578 8.89219 11.3644C8.02812 10.5944 7.44047 9.63625 7.27016 9.34812C7.09969 9.05422 7.2525 8.88359 7.38766 8.725C7.53469 8.54266 7.67562 8.41344 7.8225 8.24281C7.96953 8.07234 8.05172 7.98422 8.14578 7.78422C8.24578 7.59031 8.17516 7.39031 8.10469 7.24328C8.03406 7.09594 7.44641 5.66141 7.20531 5.07953ZM9.99703 0C4.48422 0 0 4.48547 0 9.99984C0 12.1867 0.705313 14.215 1.90422 15.8611L0.658125 19.5766L4.50187 18.3481C6.08281 19.3945 7.96937 20 10.003 20C15.5158 20 20 15.5142 20 10.0002C20 4.48578 15.5158 0.0003125 10.003 0.0003125H9.99719L9.99703 0Z" />
</g>
<defs>
<clipPath id="clip0_34_522">
<rect width="20" height="20" fill="white"/>
</clipPath>
</defs>
</svg>
