<svg xmlns="http://www.w3.org/2000/svg" width="59" height="32" fill="none" viewBox="0 0 59 32">
    <rect width="59" height="32" fill="#fff" rx="16"/>
    <path fill="#E1E1E1"
          d="M50.788 16.974a.449.449 0 0 0-.539.05 5.823 5.823 0 0 1-3.918 1.513 5.846 5.846 0 0 1-5.84-5.839c0-1.45.538-2.842 1.514-3.918a.45.45 0 0 0-.455-.734A7.663 7.663 0 0 0 36 15.393c0 4.21 3.425 7.636 7.636 7.636 3.4 0 6.421-2.282 7.347-5.55a.449.449 0 0 0-.195-.505Z"/>
    <path fill="#E1E1E1"
          d="m43.438 13.957 1.064.531.531 1.065a.449.449 0 0 0 .804 0l.532-1.065 1.064-.531a.45.45 0 0 0 0-.804l-1.064-.532-.532-1.064c-.153-.304-.652-.304-.804 0l-.531 1.064-1.064.532a.449.449 0 0 0 0 .804ZM48.128 10.452h.449v.45a.449.449 0 1 0 .898 0v-.45h.45a.449.449 0 1 0 0-.898h-.45v-.45a.449.449 0 1 0-.898 0v.45h-.45a.449.449 0 1 0 0 .898Z"/>
    <circle cx="16" cy="16" r="12" fill="#5A5276"/>
    <path fill="#fff"
          d="M16 11.993A4.012 4.012 0 0 0 11.994 16a4.012 4.012 0 0 0 4.008 4.008A4.012 4.012 0 0 0 20.008 16a4.012 4.012 0 0 0-4.007-4.007ZM16 10.815a.782.782 0 0 1-.781-.782V8.782a.782.782 0 1 1 1.564 0v1.25c0 .432-.35.783-.782.783ZM16 21.186a.782.782 0 0 0-.781.782v1.25a.782.782 0 1 0 1.564 0v-1.25a.782.782 0 0 0-.782-.782ZM19.666 12.334a.782.782 0 0 1 0-1.106l.885-.885a.782.782 0 0 1 1.106 1.106l-.885.885a.782.782 0 0 1-1.106 0ZM12.333 19.667a.781.781 0 0 0-1.106 0l-.885.884a.782.782 0 0 0 1.106 1.106l.885-.885a.781.781 0 0 0 0-1.105ZM21.186 16c0-.432.35-.782.782-.782h1.25a.782.782 0 1 1 0 1.563h-1.25a.782.782 0 0 1-.782-.781ZM10.815 16a.782.782 0 0 0-.782-.782H8.782a.782.782 0 1 0 0 1.564h1.25c.432 0 .783-.35.783-.782ZM19.667 19.667a.782.782 0 0 1 1.105 0l.885.884a.781.781 0 1 1-1.106 1.106l-.884-.885a.781.781 0 0 1 0-1.105ZM12.333 12.333a.782.782 0 0 0 0-1.105l-.885-.885a.782.782 0 0 0-1.106 1.106l.885.884c.305.306.8.306 1.106 0Z"/>
</svg>