<svg xmlns="http://www.w3.org/2000/svg" width="59" height="32" fill="none" viewBox="0 0 59 32">
    <rect width="59" height="32" fill="#5A5276" rx="16"/>
    <path fill="#fff"
          d="M15.145 9.109a.275.275 0 0 0-.314-.092.288.288 0 0 0-.179.201c-.058.115-.345.52-.648.946-1.4 1.971-4.004 5.64-4.004 7.74C10 20.715 12.21 23 14.925 23c2.716 0 4.925-2.286 4.925-5.095 0-2.725-4.513-8.55-4.706-8.796ZM29.72 9.109a.275.275 0 0 0-.313-.092.288.288 0 0 0-.18.201c-.058.115-.345.52-.648.946-1.4 1.971-4.004 5.64-4.004 7.74 0 2.81 2.21 5.096 4.925 5.096 2.716 0 4.925-2.286 4.925-5.095 0-2.725-4.513-8.55-4.705-8.796ZM44.294 9.109a.275.275 0 0 0-.313-.092.288.288 0 0 0-.18.201c-.058.115-.345.52-.648.946-1.4 1.971-4.004 5.64-4.004 7.74 0 2.81 2.21 5.096 4.925 5.096C46.79 23 49 20.714 49 17.905c0-2.725-4.514-8.55-4.706-8.796Z"/>
</svg>