<svg xmlns="http://www.w3.org/2000/svg" width="32" height="32" fill="none" viewBox="0 0 32 32">
    <rect width="32" height="32" fill="#5A5276" rx="16"/>
    <path fill="#fff"
          d="M17.87 9.232a8.5 8.5 0 0 0-8.613 3.304c-4.086 5.45-.015 13.53 6.85 13.463C26.3 25.717 27.699 11.565 17.87 9.232Zm3.037 3.493a.358.358 0 0 1 0 .503l-3.611 3.611a1.361 1.361 0 1 1-.504-.507l3.607-3.607a.36.36 0 0 1 .508 0Zm-4.8 11.582c-9.002-.371-9-13.202 0-13.571a6.74 6.74 0 0 1 3.614 1.046.355.355 0 0 1-.382.6c-3.941-2.559-9.365.436-9.304 5.14.336 8.053 11.808 8.051 12.143-.001a6.047 6.047 0 0 0-.932-3.232.357.357 0 1 1 .607-.379 6.788 6.788 0 0 1-5.746 10.397Z"/>
    <path fill="#fff"
          d="M16.107 16.864a.659.659 0 0 0 0 1.318.659.659 0 0 0 0-1.318ZM14.267 7.693h.129v.796a9.282 9.282 0 0 1 3.474.015v-.811h.075a.716.716 0 0 0 .715-.714v-.265A.716.716 0 0 0 17.945 6h-3.678a.716.716 0 0 0-.714.714v.265a.716.716 0 0 0 .714.714ZM8.264 11.664l.061-.06.421.421a9.195 9.195 0 0 1 1.907-1.896l-.424-.425.02-.025C10.91 9 9.88 7.963 9.197 8.622L7.211 10.61a.702.702 0 0 0-.211.503.757.757 0 0 0 1.264.55Z"/>
</svg>